<?xml version="1.0" encoding="UTF-8"?><svg id="Layer_1" xmlns="http://www.w3.org/2000/svg" viewBox="0 0 100.01 100.01"><defs><style>.cls-1{fill:#fff;}.cls-2{fill:#ee3158;}.cls-3{fill:#fff200;}</style></defs><g id="Layer_2"><rect class="cls-1" x="3" y="3" width="94" height="94" rx="8.72" ry="8.72"/><path d="M88.29,6c3.15,0,5.72,2.56,5.72,5.72v76.57c0,3.15-2.56,5.72-5.72,5.72H11.72c-3.15,0-5.72-2.56-5.72-5.72V11.72c0-3.15,2.56-5.72,5.72-5.72h76.57M88.29,0H11.72C5.25,0,0,5.25,0,11.72v76.57c0,6.47,5.25,11.72,11.72,11.72h76.57c6.47,0,11.72-5.25,11.72-11.72V11.72c0-6.47-5.25-11.72-11.72-11.72h0Z"/></g><g id="Layer_1-2"><g id="Full"><g id="Logo"><path id="Full-2" d="M88.74,48.05c-1.82-2.09-5.09-4.17-7.52-4.45,1.19-3.94,2.15-8.32,2.82-13.18h0c.25-1.78.46-3.63.63-5.54h0c-.04-2.36-.63-4.21-2.07-5.15-2.1-1.36-5.48-1.4-5.9,2.4,0,.16-.02.32-.03.47v.13c-.02.87-.12,1.78-.22,2.7-.1,1.05-.21,2.07-.33,3.07-.15,1.21-.32,2.38-.5,3.52-7.84-5.49-19.72-8.46-30.9-5.15-1.62-4.41-4.03-7.92-6.62-7.92-.08,0-.17,0-.25.01-2.55.23-4.88,1.27-3.95,5.47.43,1.96,1.48,4.31,2.74,6.09-5.7,3.59-10.86,9.28-14.73,17.67-.04-.04-.09-.08-.14-.12-3.52-3.02-7.34-4.73-9.55-3.04-2.1,1.6-3.64,3.8-.92,6.91,1.82,2.09,5.09,4.17,7.52,4.45-1.19,3.94-2.15,8.32-2.82,13.18q-.3,2.16,0,0c-.25,1.78-.46,3.63-.63,5.54h0c.05,2.36.63,4.21,2.07,5.15,2.09,1.36,5.48,1.4,5.89-2.4,0-.16.02-.31.03-.47v-.13c.02-.86.11-1.78.22-2.7.1-1.05.21-2.07.33-3.07.15-1.21.32-2.38.5-3.52,7.83,5.49,19.71,8.46,30.9,5.15,1.62,4.41,4.03,7.92,6.62,7.92.08,0,.17,0,.25-.01,2.54-.23,4.88-1.27,3.95-5.47-.44-1.96-1.48-4.31-2.74-6.09,5.7-3.59,10.86-9.28,14.73-17.67.05.04.09.08.14.12,3.52,3.02,7.34,4.73,9.54,3.04,2.1-1.6,3.64-3.79.92-6.91h.02ZM26.03,60.44c8.74-32.68,34.67-30.46,47.99-20.88-8.74,32.68-34.67,30.46-47.99,20.88h0Z"/><path id="Sclera" class="cls-3" d="M26.03,60.44c13.31,9.58,39.25,11.8,47.99-20.88-13.31-9.57-39.25-11.79-47.99,20.88ZM59.87,52.77c-.24.93-.52,1.8-.97,2.61-.45.82-.91,1.65-1.54,2.32-.64.67-1.33,1.32-2.11,1.79-.77.47-1.7.61-2.58.85-.85.24-1.72.31-2.64.31s-1.82.06-2.68-.18c-.88-.25-1.64-.76-2.41-1.23-.78-.48-1.45-1.05-2.08-1.72-.64-.67-1.39-1.24-1.84-2.06-.45-.81-.87-1.69-1.11-2.61-.23-.89-.38-1.87-.38-2.84s.26-1.92.48-2.81c.24-.92.5-1.87.94-2.68.45-.82,1.01-1.63,1.64-2.3.64-.67,1.46-1.15,2.24-1.63.77-.47,1.59-.97,2.47-1.22.85-.24,1.79-.38,2.72-.38s1.85.18,2.71.42c.88.25,1.74.64,2.51,1.11.78.48,1.38,1.23,2.01,1.9.64.67,1.19,1.39,1.65,2.21.45.81.95,1.62,1.19,2.55.23.89.38,1.86.38,2.83s-.38,1.87-.61,2.76h.01Z"/><path class="cls-1" d="M74.02,39.56c-8.74,32.68-34.68,30.46-47.99,20.88,8.74-32.68,34.67-30.46,47.99-20.88h0Z"/></g></g><g id="Pupil"><path id="Pupil-2" class="cls-2" d="M60.47,50c0,.97-.38,1.87-.61,2.76-.24.93-.52,1.8-.97,2.61-.45.82-.91,1.65-1.54,2.32-.64.67-1.33,1.32-2.11,1.79-.77.47-1.7.61-2.58.85-.85.24-1.72.31-2.64.31s-1.82.06-2.68-.18c-.88-.25-1.64-.76-2.41-1.23-.78-.48-1.45-1.05-2.08-1.72-.64-.67-1.39-1.24-1.84-2.06-.45-.81-.87-1.69-1.11-2.61-.23-.89-.38-1.87-.38-2.84s.26-1.92.48-2.81c.24-.92.5-1.87.94-2.68.45-.82,1.01-1.63,1.64-2.3.64-.67,1.46-1.15,2.24-1.63.77-.47,1.59-.97,2.47-1.22.85-.24,1.79-.38,2.72-.38s1.85.18,2.71.42c.88.25,1.74.64,2.51,1.11.78.48,1.38,1.23,2.01,1.9.64.67,1.19,1.39,1.65,2.21.45.81.95,1.62,1.19,2.55.23.89.38,1.86.38,2.83h.01Z"/></g></g></svg>