<?xml version="1.0" encoding="UTF-8"?>
<svg id="Layer_1" xmlns="http://www.w3.org/2000/svg" version="1.1" viewBox="0 0 1081.16 837.29">
  <!-- Generator: Adobe Illustrator 30.5.1, SVG Export Plug-In . SVG Version: 2.1.4 Build 3)  -->
  <defs>
    <style>
      .st0 {
        fill: #fff;
      }

      .st1 {
        fill: #ee3158;
      }

      .st2 {
        fill: #fff200;
      }
    </style>
  </defs>
  <g id="Full">
    <g id="Logo">
      <path id="Full-2" d="M1061.55,392.36c-24.52-28.06-68.55-56.07-101.2-59.83,16.02-53.02,28.87-111.95,38-177.3v-.05c3.37-23.96,6.2-48.82,8.52-74.53v-.07c-.59-31.75-8.47-56.61-27.89-69.26-28.21-18.32-73.8-18.83-79.35,32.26-.12,2.12-.24,4.25-.42,6.33,0,.34-.05.71-.07,1.05l-.05.71c-.27,11.65-1.51,24.01-2.95,36.39-1.29,14.07-2.78,27.82-4.44,41.27-2,16.26-4.27,32.09-6.76,47.43-105.45-73.83-265.32-113.8-415.8-69.28C447.35,48.07,414.85.89,380.09.89c-1.12,0-2.27.05-3.39.15-34.26,3.08-65.65,17.05-53.09,73.61,5.84,26.38,19.93,57.95,36.9,81.93-76.76,48.26-146.19,124.87-198.23,237.84-.59-.54-1.22-1.07-1.83-1.61-47.4-40.59-98.76-63.62-128.46-40.88-28.21,21.59-48.99,51.07-12.36,93.02,24.49,28.08,68.55,56.07,101.2,59.83-16.02,53.02-28.89,111.95-38,177.32q-6.07,43.58,0,.02c-3.37,23.98-6.2,48.82-8.52,74.53l-.02.07c.61,31.75,8.47,56.63,27.91,69.26,28.18,18.32,73.8,18.83,79.32-32.26.12-2.1.27-4.22.44-6.33l.07-1.05.02-.71c.29-11.62,1.54-24.01,2.96-36.39,1.32-14.07,2.81-27.82,4.47-41.27,2-16.26,4.27-32.07,6.76-47.43,105.43,73.85,265.29,113.83,415.8,69.28,21.78,59.39,54.29,106.6,89.04,106.6,1.12,0,2.27-.05,3.39-.17,34.24-3.05,65.62-17.05,53.09-73.61-5.86-26.35-19.95-57.95-36.9-81.93,76.76-48.26,146.19-124.87,198.21-237.84.61.54,1.22,1.07,1.86,1.61,47.4,40.59,98.76,63.62,128.43,40.88,28.23-21.59,48.99-51.04,12.38-93.02v.02ZM217.72,559.16c117.61-439.73,466.62-409.87,645.75-281.02-117.61,439.76-466.62,409.89-645.75,281.02h0Z"/>
      <path id="Sclera" class="st2" d="M217.72,559.16c179.13,128.87,528.14,158.74,645.75-281.02C684.34,149.3,335.33,119.43,217.72,559.16ZM673.01,455.86c-3.17,12.46-6.98,24.2-12.99,35.09-6.08,11.04-12.19,22.22-20.73,31.19-8.55,8.96-17.88,17.78-28.4,24.15-10.4,6.3-22.86,8.16-34.73,11.48-11.48,3.22-23.13,4.13-35.56,4.13s-24.52.81-36-2.42c-11.87-3.32-22.03-10.26-32.43-16.56-10.53-6.4-19.49-14.16-28.04-23.13-8.55-8.96-18.71-16.68-24.81-27.72-6.01-10.89-11.75-22.71-14.92-35.17-3.05-12.02-5.06-25.23-5.06-38.24s3.44-25.84,6.52-37.88c3.17-12.43,6.67-25.13,12.67-36.02,6.11-11.04,13.55-21.93,22.1-30.89,8.55-8.99,19.66-15.51,30.18-21.91,10.4-6.3,21.34-13.07,33.21-16.39,11.45-3.22,24.13-5.15,36.56-5.15s24.96,2.47,36.44,5.67c11.84,3.32,23.42,8.67,33.8,14.97,10.55,6.4,18.54,16.58,27.08,25.54,8.55,8.96,16.07,18.66,22.15,29.72,6.03,10.89,12.85,21.81,16,34.26,3.08,12.02,5.13,25.03,5.13,38.07s-5.1,25.18-8.18,37.19v.02Z"/>
      <path class="st0" d="M863.47,278.14c-117.62,439.76-466.63,409.89-645.76,281.02,117.62-439.73,466.62-409.87,645.76-281.02h0Z"/>
    </g>
  </g>
  <g id="Pupil">
    <path id="Pupil-2" class="st1" d="M681.19,418.66c0,13.02-5.1,25.18-8.18,37.19-3.17,12.46-6.98,24.2-12.99,35.09-6.08,11.04-12.19,22.22-20.73,31.19-8.55,8.96-17.88,17.78-28.4,24.15-10.4,6.3-22.86,8.16-34.73,11.48-11.48,3.22-23.13,4.13-35.56,4.13s-24.52.81-36-2.42c-11.87-3.32-22.03-10.26-32.43-16.56-10.53-6.4-19.49-14.16-28.04-23.13-8.55-8.96-18.71-16.68-24.81-27.72-6.01-10.89-11.75-22.71-14.92-35.17-3.05-12.02-5.06-25.23-5.06-38.24s3.44-25.84,6.52-37.88c3.17-12.43,6.67-25.13,12.67-36.02,6.11-11.04,13.55-21.93,22.1-30.89,8.55-8.99,19.66-15.51,30.18-21.91,10.4-6.3,21.34-13.07,33.21-16.39,11.45-3.22,24.13-5.15,36.56-5.15s24.96,2.47,36.44,5.67c11.84,3.32,23.42,8.67,33.8,14.97,10.55,6.4,18.54,16.58,27.08,25.54,8.55,8.96,16.07,18.66,22.15,29.72,6.03,10.89,12.85,21.81,16,34.26,3.08,12.02,5.13,25.03,5.13,38.07v.02Z"/>
  </g>
</svg>